<svg width="25" height="25" fill="none" xmlns="http://www.w3.org/2000/svg"><path fill-rule="evenodd" clip-rule="evenodd" d="M21.94 8.369c.04.687.058 1.925.058 3.712 0 1.788-.019 3.026-.059 3.713-.078 1.624-.562 2.88-1.452 3.771-.891.89-2.148 1.375-3.774 1.453-.687.038-1.925.058-3.715.058-1.788 0-3.027-.02-3.714-.058-1.626-.078-2.883-.562-3.774-1.453-.891-.89-1.375-2.147-1.453-3.771-.04-.687-.059-1.925-.059-3.713 0-1.787.02-3.025.059-3.712.078-1.625.562-2.881 1.453-3.772.891-.89 2.148-1.374 3.774-1.452.687-.039 1.926-.059 3.714-.059 1.79 0 3.028.02 3.715.059 1.626.078 2.883.562 3.774 1.452.89.89 1.374 2.147 1.453 3.772zm-3.376-1.852c.21.212.317.465.317.762s-.106.55-.317.76c-.21.212-.465.318-.761.318a1.04 1.04 0 01-.762-.317 1.034 1.034 0 01-.316-.761c0-.297.105-.55.316-.762.211-.21.465-.316.762-.316.296 0 .55.106.761.316zm-2.296 2.297c.898.898 1.347 1.987 1.347 3.267 0 1.281-.45 2.37-1.347 3.269-.899.898-1.989 1.347-3.27 1.347-1.28 0-2.37-.45-3.269-1.347-.898-.899-1.348-1.988-1.348-3.269 0-1.28.45-2.369 1.348-3.267.898-.897 1.988-1.347 3.269-1.347 1.282 0 2.371.45 3.27 1.347zM15.119 14.2a2.888 2.888 0 00.878-2.12c0-.826-.292-1.533-.878-2.119a2.892 2.892 0 00-2.121-.879c-.827 0-1.535.293-2.122.88a2.89 2.89 0 00-.878 2.118c0 .828.293 1.535.878 2.12a2.892 2.892 0 002.122.879c.828 0 1.535-.292 2.121-.879z" fill="#141414"/></svg>