<svg width="25" height="25" fill="none" xmlns="http://www.w3.org/2000/svg"><path fill-rule="evenodd" clip-rule="evenodd" d="M22.898 7.783l.1.1c.2.4-.4 1.4-1.6 2.899-.2.3-.4.5-.7.899-.3.3-.5.6-.6.7-.1.1-.2.3-.3.5-.1.2-.2.3-.1.4 0 .099.1.199.1.299.1.2.2.4.4.5.2.1.4.3.6.5h.1c1 .899 1.6 1.598 2 2.198 0 0 0 .1.1.1 0 .1 0 .1.1.3v.3c0 .1-.1.2-.3.3-.1.1-.4.1-.6.1h-2.7c-.2 0-.4 0-.6-.1-.2-.1-.4-.1-.5-.2l-.2-.1c-.2-.1-.5-.4-.7-.6-.3-.3-.5-.5-.7-.8l-.6-.6c-.2-.2-.4-.2-.6-.2h-.1s-.1.1-.2.1c-.1.1-.2.2-.2.3-.1.1-.1.3-.2.5s-.1.5-.1.8v.3c0 .1-.1.1-.1.2v.1c-.1.1-.3.2-.6.2h-1.3c-.5 0-1 0-1.5-.2-.5-.1-1-.3-1.4-.5-.4 0-.8-.2-1.1-.4-.3-.2-.5-.4-.7-.6l-.3-.2c0-.1-.1-.2-.3-.3-.1-.2-.3-.499-.7-.999-.4-.4-.7-.9-1.1-1.499-.4-.5-.8-1.2-1.3-2.099-.5-.899-.9-1.799-1.3-2.698-.1-.1-.1-.2-.1-.3v-.3c.1-.1.3-.2.6-.2h2.9c.1 0 .2 0 .2.1.1 0 .1.1.2.1h.1c.1.1.2.2.2.4.1.3.3.7.5 1 .2.4.3.7.4.8l.2.299c.2.4.4.7.6 1 .2.3.4.499.5.699.1.2.3.4.4.4.2.1.3.2.4.2.1 0 .2 0 .3-.1l.1-.1s.1-.1.1-.2c.1-.1.1-.3.1-.5s.1-.5.1-.8V9.483c0-.3 0-.5-.1-.7 0-.2-.1-.399-.1-.499h-.1c-.2-.2-.5-.4-.9-.4-.1 0-.1-.1.1-.2 0-.2.2-.3.3-.4.4-.1 1.2-.2 2.5-.2.6 0 1 .1 1.4.1.1 0 .3.1.3.1.1.1.2.1.2.2s.1.2.1.3v3.898c0 .2.1.3.1.4.1.1.1.2.2.2h.2c.1 0 .2 0 .3-.1.1-.1.3-.2.4-.3.1-.1.3-.4.5-.7.2-.3.5-.7.7-1.099.4-.7.8-1.4 1.1-2.299 0-.1.1-.1.1-.2l.1-.1h4.1c.4.2.5.2.5.3z" fill="#141414"/></svg>