<svg width="25" height="25" fill="none" xmlns="http://www.w3.org/2000/svg"><path fill-rule="evenodd" clip-rule="evenodd" d="M20.908 4.43a2.694 2.694 0 011.87 1.92c.455 1.703.437 5.256.437 5.256s0 3.534-.436 5.239a2.695 2.695 0 01-1.87 1.92c-1.661.448-8.302.448-8.302.448s-6.624 0-8.302-.467a2.695 2.695 0 01-1.87-1.92c-.437-1.686-.437-5.238-.437-5.238s0-3.535.437-5.239c.245-.933.979-1.686 1.87-1.937 1.66-.45 8.302-.45 8.302-.45s6.641 0 8.301.467zm-4.986 7.158l-5.304 2.984V8.604l5.304 2.984z" fill="#141414"/></svg>