<svg viewBox="0 0 25 25" xmlns="http://www.w3.org/2000/svg" xmlns:xlink="http://www.w3.org/1999/xlink"><style>:root&gt;svg{display:none}:root&gt;svg:target{display:block}</style><svg viewBox="0 0 12 8" id="dropdown" xmlns="http://www.w3.org/2000/svg"><path d="M6 3.29l3.54 3.54a1 1 0 101.41-1.42L6.71 1.17a1 1 0 00-1.42 0L1 5.41a1 1 0 00-.29.71 1 1 0 00.29.71 1 1 0 001.41 0L6 3.29z"/></svg><svg fill="none" viewBox="0 0 25 25" id="inst" xmlns="http://www.w3.org/2000/svg"><path fill-rule="evenodd" clip-rule="evenodd" d="M21.94 8.369c.04.687.058 1.925.058 3.712 0 1.788-.019 3.026-.059 3.713-.078 1.624-.562 2.88-1.452 3.771-.891.89-2.148 1.375-3.774 1.453-.687.038-1.925.058-3.715.058-1.788 0-3.027-.02-3.714-.058-1.626-.078-2.883-.562-3.774-1.453-.891-.89-1.375-2.147-1.453-3.771-.04-.687-.059-1.925-.059-3.713 0-1.787.02-3.025.059-3.712.078-1.625.562-2.881 1.453-3.772.891-.89 2.148-1.374 3.774-1.452.687-.039 1.926-.059 3.714-.059 1.79 0 3.028.02 3.715.059 1.626.078 2.883.562 3.774 1.452.89.89 1.374 2.147 1.453 3.772zm-3.376-1.852c.21.212.317.465.317.762s-.106.55-.317.76c-.21.212-.465.318-.761.318a1.04 1.04 0 01-.762-.317 1.034 1.034 0 01-.316-.761c0-.297.105-.55.316-.762.211-.21.465-.316.762-.316.296 0 .55.106.761.316zm-2.296 2.297c.898.898 1.347 1.987 1.347 3.267 0 1.281-.45 2.37-1.347 3.269-.899.898-1.989 1.347-3.27 1.347-1.28 0-2.37-.45-3.269-1.347-.898-.899-1.348-1.988-1.348-3.269 0-1.28.45-2.369 1.348-3.267.898-.897 1.988-1.347 3.269-1.347 1.282 0 2.371.45 3.27 1.347zM15.119 14.2a2.888 2.888 0 00.878-2.12c0-.826-.292-1.533-.878-2.119a2.892 2.892 0 00-2.121-.879c-.827 0-1.535.293-2.122.88a2.89 2.89 0 00-.878 2.118c0 .828.293 1.535.878 2.12a2.892 2.892 0 002.122.879c.828 0 1.535-.292 2.121-.879z" fill="#141414"/></svg><svg viewBox="0 0 8 12" id="sArow" xmlns="http://www.w3.org/2000/svg"><path d="M4.71 6L1.17 9.54a1 1 0 101.42 1.41l4.24-4.24a1 1 0 000-1.42L2.59 1a1 1 0 00-.71-.29 1 1 0 00-.71.29 1 1 0 000 1.41L4.71 6z"/></svg><svg fill="none" viewBox="0 0 25 25" id="vk" xmlns="http://www.w3.org/2000/svg"><path fill-rule="evenodd" clip-rule="evenodd" d="M22.898 7.783l.1.1c.2.4-.4 1.4-1.6 2.899-.2.3-.4.5-.7.899-.3.3-.5.6-.6.7-.1.1-.2.3-.3.5-.1.2-.2.3-.1.4 0 .099.1.199.1.299.1.2.2.4.4.5.2.1.4.3.6.5h.1c1 .899 1.6 1.598 2 2.198 0 0 0 .1.1.1 0 .1 0 .1.1.3v.3c0 .1-.1.2-.3.3-.1.1-.4.1-.6.1h-2.7c-.2 0-.4 0-.6-.1-.2-.1-.4-.1-.5-.2l-.2-.1c-.2-.1-.5-.4-.7-.6-.3-.3-.5-.5-.7-.8l-.6-.6c-.2-.2-.4-.2-.6-.2h-.1s-.1.1-.2.1c-.1.1-.2.2-.2.3-.1.1-.1.3-.2.5s-.1.5-.1.8v.3c0 .1-.1.1-.1.2v.1c-.1.1-.3.2-.6.2h-1.3c-.5 0-1 0-1.5-.2-.5-.1-1-.3-1.4-.5-.4 0-.8-.2-1.1-.4-.3-.2-.5-.4-.7-.6l-.3-.2c0-.1-.1-.2-.3-.3-.1-.2-.3-.499-.7-.999-.4-.4-.7-.9-1.1-1.499-.4-.5-.8-1.2-1.3-2.099-.5-.899-.9-1.799-1.3-2.698-.1-.1-.1-.2-.1-.3v-.3c.1-.1.3-.2.6-.2h2.9c.1 0 .2 0 .2.1.1 0 .1.1.2.1h.1c.1.1.2.2.2.4.1.3.3.7.5 1 .2.4.3.7.4.8l.2.299c.2.4.4.7.6 1 .2.3.4.499.5.699.1.2.3.4.4.4.2.1.3.2.4.2.1 0 .2 0 .3-.1l.1-.1s.1-.1.1-.2c.1-.1.1-.3.1-.5s.1-.5.1-.8V9.483c0-.3 0-.5-.1-.7 0-.2-.1-.399-.1-.499h-.1c-.2-.2-.5-.4-.9-.4-.1 0-.1-.1.1-.2 0-.2.2-.3.3-.4.4-.1 1.2-.2 2.5-.2.6 0 1 .1 1.4.1.1 0 .3.1.3.1.1.1.2.1.2.2s.1.2.1.3v3.898c0 .2.1.3.1.4.1.1.1.2.2.2h.2c.1 0 .2 0 .3-.1.1-.1.3-.2.4-.3.1-.1.3-.4.5-.7.2-.3.5-.7.7-1.099.4-.7.8-1.4 1.1-2.299 0-.1.1-.1.1-.2l.1-.1h4.1c.4.2.5.2.5.3z" fill="#141414"/></svg><svg fill="none" viewBox="0 0 25 25" id="yuotube" xmlns="http://www.w3.org/2000/svg"><path fill-rule="evenodd" clip-rule="evenodd" d="M20.908 4.43a2.694 2.694 0 011.87 1.92c.455 1.703.437 5.256.437 5.256s0 3.534-.436 5.239a2.695 2.695 0 01-1.87 1.92c-1.661.448-8.302.448-8.302.448s-6.624 0-8.302-.467a2.695 2.695 0 01-1.87-1.92c-.437-1.686-.437-5.238-.437-5.238s0-3.535.437-5.239c.245-.933.979-1.686 1.87-1.937 1.66-.45 8.302-.45 8.302-.45s6.641 0 8.301.467zm-4.986 7.158l-5.304 2.984V8.604l5.304 2.984z" fill="#141414"/></svg></svg>