<svg width="27" height="24" fill="none" xmlns="http://www.w3.org/2000/svg"><path d="M26.755 8.93h-7.846a.246.246 0 00-.245.245v1.473c0 .136.11.246.245.246h7.846c.135 0 .245-.11.245-.245V9.175a.246.246 0 00-.245-.245zm-4.107 4.174H18.91a.246.246 0 00-.245.246v1.473c0 .135.11.245.245.245h3.74c.134 0 .244-.11.244-.245V13.35a.246.246 0 00-.245-.246zM12.421 6.183h-1.327a.343.343 0 00-.343.343v7.612c0 .11.052.212.141.277l4.563 3.333c.153.11.368.08.478-.074l.788-1.077v-.003a.344.344 0 00-.077-.479l-3.883-2.811V6.526a.34.34 0 00-.34-.343z" fill="#8DBB11"/><path d="M22.458 16.968h-1.771a.504.504 0 00-.426.236 9.85 9.85 0 01-1.364 1.71 9.72 9.72 0 01-6.905 2.864 9.72 9.72 0 01-6.905-2.864A9.735 9.735 0 012.228 12a9.736 9.736 0 012.86-6.915 9.72 9.72 0 016.904-2.864 9.719 9.719 0 016.905 2.864 9.849 9.849 0 011.364 1.71.504.504 0 00.426.236h1.771a.28.28 0 00.252-.409A11.984 11.984 0 0012.135.001C5.513-.082.012 5.348 0 11.974-.012 18.614 5.36 24 11.99 24c4.58 0 8.7-2.597 10.72-6.624a.282.282 0 00-.252-.408z" fill="#8DBB11"/></svg>