<svg width="12" height="8" viewBox="0 0 12 8"  xmlns="http://www.w3.org/2000/svg">
<path d="M6.00001 3.29007L9.54001 6.83007C9.72737 7.01632 9.98082 7.12086 10.245 7.12086C10.5092 7.12086 10.7626 7.01632 10.95 6.83007C11.0437 6.7371 11.1181 6.6265 11.1689 6.50464C11.2197 6.38278 11.2458 6.25208 11.2458 6.12007C11.2458 5.98805 11.2197 5.85735 11.1689 5.73549C11.1181 5.61363 11.0437 5.50303 10.95 5.41007L6.71001 1.17007C6.61704 1.07634 6.50644 1.00194 6.38458 0.951175C6.26272 0.900406 6.13202 0.874268 6.00001 0.874268C5.86799 0.874268 5.73729 0.900406 5.61543 0.951175C5.49357 1.00194 5.38297 1.07634 5.29001 1.17007L1.00001 5.41007C0.907324 5.50351 0.834 5.61432 0.784235 5.73616C0.73447 5.858 0.709244 5.98846 0.710005 6.12007C0.709244 6.25167 0.73447 6.38213 0.784235 6.50397C0.834 6.62581 0.907324 6.73663 1.00001 6.83007C1.18737 7.01632 1.44082 7.12086 1.70501 7.12086C1.96919 7.12086 2.22264 7.01632 2.41001 6.83007L6.00001 3.29007Z"  />
</svg>
