<svg width="25" height="25" viewBox="0 0 25 25" fill="none" xmlns="http://www.w3.org/2000/svg">
<path fill-rule="evenodd" clip-rule="evenodd" d="M21.9395 8.36876C21.9791 9.05596 21.998 10.2936 21.998 12.0809C21.998 13.869 21.9791 15.1067 21.9395 15.7939C21.8612 17.4183 21.377 18.6749 20.4869 19.5654C19.5959 20.4558 18.3386 20.9397 16.7132 21.018C16.0256 21.0558 14.7881 21.0765 12.998 21.0765C11.2097 21.0765 9.97135 21.0558 9.28375 21.018C7.65835 20.9397 6.40105 20.4558 5.51005 19.5654C4.61905 18.6749 4.13485 17.4183 4.05655 15.7939C4.01785 15.1067 3.99805 13.869 3.99805 12.0809C3.99805 10.2936 4.01785 9.05596 4.05655 8.36876C4.13485 6.74432 4.61905 5.48776 5.51005 4.59729C6.40105 3.70682 7.65835 3.2229 9.28375 3.14465C9.97135 3.10597 11.2097 3.08618 12.998 3.08618C14.7881 3.08618 16.0256 3.10597 16.7132 3.14465C18.3386 3.2229 19.5959 3.70682 20.4869 4.59729C21.377 5.48776 21.8612 6.74432 21.9395 8.36876ZM18.5642 6.51713C18.7748 6.7285 18.881 6.98216 18.881 7.27898C18.881 7.5758 18.7748 7.82945 18.5642 8.03993C18.3536 8.25131 18.0989 8.35654 17.8028 8.35654C17.5058 8.35654 17.252 8.25131 17.0414 8.03993C16.8299 7.82945 16.7246 7.5758 16.7246 7.27898C16.7246 6.98216 16.8299 6.7285 17.0414 6.51713C17.252 6.30665 17.5058 6.20142 17.8028 6.20142C18.0989 6.20142 18.3536 6.30665 18.5642 6.51713ZM16.2676 8.81445C17.1658 9.71212 17.6149 10.8014 17.6149 12.0813C17.6149 13.3622 17.1658 14.4514 16.2676 15.35C15.3694 16.2477 14.2795 16.6965 12.9979 16.6965C11.7172 16.6965 10.6273 16.2477 9.72906 15.35C8.83086 14.4514 8.38086 13.3622 8.38086 12.0813C8.38086 10.8014 8.83086 9.71212 9.72906 8.81445C10.6273 7.91678 11.7172 7.46704 12.9979 7.46704C14.2795 7.46704 15.3694 7.91678 16.2676 8.81445ZM15.119 14.2003C15.7049 13.6147 15.9974 12.9077 15.9974 12.0802C15.9974 11.2536 15.7049 10.5466 15.119 9.96106C14.5331 9.3755 13.8257 9.08228 12.9977 9.08228C12.1706 9.08228 11.4632 9.3755 10.8764 9.96106C10.2914 10.5466 9.99805 11.2536 9.99805 12.0802C9.99805 12.9077 10.2914 13.6147 10.8764 14.2003C11.4632 14.7867 12.1706 15.079 12.9977 15.079C13.8257 15.079 14.5331 14.7867 15.119 14.2003Z" fill="#141414"/>
</svg>
