<svg width="25" height="25" viewBox="0 0 25 25" fill="none" xmlns="http://www.w3.org/2000/svg">
<path fill-rule="evenodd" clip-rule="evenodd" d="M22.898 7.78333L22.998 7.88327C23.198 8.28303 22.598 9.28244 21.398 10.7816C21.198 11.0814 20.998 11.2813 20.698 11.681C20.398 11.9808 20.198 12.2807 20.098 12.3806C19.998 12.4806 19.898 12.6804 19.798 12.8803C19.698 13.0802 19.598 13.1801 19.698 13.2801C19.698 13.38 19.798 13.48 19.798 13.5799C19.898 13.7798 19.998 13.9797 20.198 14.0796C20.398 14.1796 20.598 14.3794 20.798 14.5793C20.798 14.5793 20.798 14.5793 20.898 14.5793C21.898 15.4788 22.498 16.1784 22.898 16.778C22.898 16.778 22.898 16.878 22.998 16.878C22.998 16.9779 22.998 16.9779 23.098 17.1778C23.098 17.2777 23.098 17.3777 23.098 17.4776C23.098 17.5775 22.998 17.6775 22.798 17.7774C22.698 17.8774 22.398 17.8774 22.198 17.8774H19.498C19.298 17.8774 19.098 17.8774 18.898 17.7774C18.698 17.6775 18.498 17.6775 18.398 17.5775L18.198 17.4776C17.998 17.3777 17.698 17.0778 17.498 16.878C17.198 16.5781 16.998 16.3783 16.798 16.0784C16.598 15.8785 16.398 15.6787 16.198 15.4788C15.998 15.2789 15.798 15.2789 15.598 15.2789C15.598 15.2789 15.598 15.2789 15.498 15.2789C15.498 15.2789 15.398 15.3788 15.298 15.3788C15.198 15.4788 15.098 15.5787 15.098 15.6787C14.998 15.7786 14.998 15.9785 14.898 16.1784C14.798 16.3783 14.798 16.6781 14.798 16.9779C14.798 17.0778 14.798 17.1778 14.798 17.2777C14.798 17.3777 14.698 17.3777 14.698 17.4776V17.5775C14.598 17.6775 14.398 17.7774 14.098 17.7774H12.798C12.298 17.7774 11.798 17.7774 11.298 17.5775C10.798 17.4776 10.298 17.2777 9.89805 17.0778C9.49805 17.0778 9.09805 16.878 8.79805 16.6781C8.49805 16.4782 8.29805 16.2783 8.09805 16.0784L7.79805 15.8785C7.79805 15.7786 7.69805 15.6787 7.49805 15.5787C7.39805 15.3788 7.19805 15.079 6.79805 14.5793C6.39805 14.1796 6.09805 13.6798 5.69805 13.0802C5.29805 12.5805 4.89805 11.8809 4.39805 10.9814C3.89805 10.082 3.49805 9.1825 3.09805 8.28303C2.99805 8.18309 2.99805 8.08315 2.99805 7.98321C2.99805 7.88327 2.99805 7.88327 2.99805 7.78333V7.68339C3.09805 7.58345 3.29805 7.4835 3.59805 7.4835H6.49805C6.59805 7.4835 6.69805 7.4835 6.69805 7.58345C6.79805 7.58345 6.79805 7.68339 6.89805 7.68339H6.99805C7.09805 7.78333 7.19805 7.88327 7.19805 8.08315C7.29805 8.38297 7.49805 8.78274 7.69805 9.08256C7.89805 9.48232 7.99805 9.78215 8.09805 9.88209L8.29805 10.1819C8.49805 10.5817 8.69805 10.8815 8.89805 11.1813C9.09805 11.4811 9.29805 11.681 9.39805 11.8809C9.49805 12.0808 9.69805 12.2807 9.79805 12.2807C9.99805 12.3806 10.098 12.4806 10.198 12.4806C10.298 12.4806 10.398 12.4806 10.498 12.3806C10.498 12.3806 10.498 12.3806 10.598 12.2807C10.598 12.2807 10.698 12.1807 10.698 12.0808C10.798 11.9808 10.798 11.781 10.798 11.5811C10.798 11.3812 10.898 11.0814 10.898 10.7816C10.898 10.4817 10.898 9.98203 10.898 9.48232C10.898 9.1825 10.898 8.98262 10.798 8.78274C10.798 8.58286 10.698 8.38297 10.698 8.28303H10.598C10.398 8.08315 10.098 7.88327 9.69805 7.88327C9.59805 7.88327 9.59805 7.78333 9.79805 7.68339C9.79805 7.4835 9.99805 7.38356 10.098 7.28362C10.498 7.18368 11.298 7.08374 12.598 7.08374C13.198 7.08374 13.598 7.18368 13.998 7.18368C14.098 7.18368 14.298 7.28362 14.298 7.28362C14.398 7.38356 14.498 7.38356 14.498 7.4835C14.498 7.58345 14.598 7.68339 14.598 7.78333C14.598 7.88327 14.598 8.08315 14.598 8.28303C14.598 8.48291 14.598 8.6828 14.598 8.88268C14.598 9.08256 14.598 9.28244 14.598 9.58227C14.598 9.88209 14.598 10.1819 14.598 10.3818C14.598 10.4817 14.598 10.5817 14.598 10.7816C14.598 10.9814 14.598 11.1813 14.598 11.2813C14.598 11.3812 14.598 11.4811 14.598 11.681C14.598 11.8809 14.698 11.9808 14.698 12.0808C14.798 12.1807 14.798 12.2807 14.898 12.2807C14.998 12.2807 14.998 12.2807 15.098 12.2807C15.198 12.2807 15.298 12.2807 15.398 12.1807C15.498 12.0808 15.698 11.9808 15.798 11.8809C15.898 11.781 16.098 11.4811 16.298 11.1813C16.498 10.8815 16.798 10.4817 16.998 10.082C17.398 9.38238 17.798 8.6828 18.098 7.78333C18.098 7.68339 18.198 7.68339 18.198 7.58345L18.298 7.4835H18.398C18.398 7.4835 18.398 7.4835 18.498 7.4835C18.598 7.4835 18.698 7.4835 18.698 7.4835H21.698C21.998 7.4835 22.198 7.4835 22.398 7.4835C22.798 7.68339 22.898 7.68339 22.898 7.78333Z" fill="#141414"/>
</svg>
