<svg width="25" height="25" viewBox="0 0 25 25" fill="none" xmlns="http://www.w3.org/2000/svg">
<path fill-rule="evenodd" clip-rule="evenodd" d="M20.9083 4.42934C21.8171 4.68059 22.5337 5.41607 22.7783 6.34913C23.2328 8.0534 23.2154 11.6058 23.2154 11.6058C23.2154 11.6058 23.2154 15.1402 22.7785 16.8446C22.5337 17.7775 21.8172 18.5131 20.9083 18.7642C19.248 19.2129 12.6067 19.2129 12.6067 19.2129C12.6067 19.2129 5.98277 19.2129 4.30509 18.7464C3.39616 18.4952 2.6797 17.7595 2.43495 16.8267C1.99805 15.1402 1.99805 11.5879 1.99805 11.5879C1.99805 11.5879 1.99805 8.0534 2.43495 6.34913C2.67954 5.41624 3.41365 4.66264 4.30493 4.41156C5.96528 3.96289 12.6065 3.96289 12.6065 3.96289C12.6065 3.96289 19.248 3.96289 20.9083 4.42934ZM15.922 11.5879L10.6176 14.5716V8.6042L15.922 11.5879Z" fill="#141414"/>
</svg>
