<?xml version="1.0" encoding="utf-8"?><svg viewBox="0 0 12 12" xmlns="http://www.w3.org/2000/svg" xmlns:xlink="http://www.w3.org/1999/xlink"><style>:root>svg{display:none}:root>svg:target{display:block}</style><svg viewBox="0 0 12 8" id="dropdown" xmlns="http://www.w3.org/2000/svg"><path d="M6 3.29l3.54 3.54a1 1 0 101.41-1.42L6.71 1.17a1 1 0 00-1.42 0L1 5.41a1 1 0 00-.29.71 1 1 0 00.29.71 1 1 0 001.41 0L6 3.29z"/></svg><svg viewBox="0 0 8 12" id="sArow" xmlns="http://www.w3.org/2000/svg"><path d="M4.71 6L1.17 9.54a1 1 0 101.42 1.41l4.24-4.24a1 1 0 000-1.42L2.59 1a1 1 0 00-.71-.29 1 1 0 00-.71.29 1 1 0 000 1.41L4.71 6z"/></svg></svg>