<svg width="27" height="24" viewBox="0 0 27 24" fill="none" xmlns="http://www.w3.org/2000/svg">
<path d="M26.7549 8.92966H18.9092C18.7744 8.92966 18.6641 9.04016 18.6641 9.17521V10.6485C18.6641 10.7835 18.7744 10.894 18.9092 10.894H26.7549C26.8897 10.894 27.0001 10.7835 27.0001 10.6485V9.17521C27.0001 9.04016 26.8897 8.92966 26.7549 8.92966ZM22.6482 13.1039H18.9092C18.7744 13.1039 18.6641 13.2144 18.6641 13.3495V14.8228C18.6641 14.9578 18.7744 15.0683 18.9092 15.0683H22.6482C22.783 15.0683 22.8934 14.9578 22.8934 14.8228V13.3495C22.8934 13.2144 22.783 13.1039 22.6482 13.1039ZM12.4212 6.18262H11.0942C10.9042 6.18262 10.751 6.33608 10.751 6.52638V14.1383C10.751 14.2488 10.8031 14.3501 10.892 14.4146L15.4553 17.7478C15.6085 17.8583 15.8231 17.8276 15.9334 17.6742L16.721 16.5968V16.5938C16.8314 16.4403 16.7976 16.2255 16.6444 16.115L12.7614 13.3035V6.52638C12.7645 6.33608 12.6082 6.18262 12.4212 6.18262Z" fill="#8DBB11"/>
<path d="M22.4582 16.9682H20.6868C20.5152 16.9682 20.3528 17.0572 20.2608 17.2045C19.8716 17.8214 19.418 18.3923 18.897 18.9141C17.9991 19.8134 16.954 20.5194 15.7925 21.0105C14.588 21.52 13.3101 21.7778 11.9922 21.7778C10.6713 21.7778 9.39336 21.52 8.19199 21.0105C7.03046 20.5194 5.9854 19.8134 5.08744 18.9141C4.18948 18.0148 3.4846 16.9682 2.99424 15.8049C2.4855 14.6017 2.22807 13.3218 2.22807 11.9989C2.22807 10.6761 2.4855 9.39921 2.99424 8.19297C3.4846 7.02969 4.18948 5.98305 5.08744 5.08374C5.9854 4.18443 7.03046 3.47848 8.19199 2.98739C9.39336 2.47788 10.6744 2.22006 11.9922 2.22006C13.3131 2.22006 14.5911 2.47788 15.7925 2.98739C16.954 3.47848 17.9991 4.18443 18.897 5.08374C19.418 5.60553 19.8716 6.17642 20.2608 6.79336C20.3528 6.94068 20.5152 7.02969 20.6868 7.02969H22.4582C22.6697 7.02969 22.8045 6.8087 22.7095 6.62147C20.7113 2.64056 16.6598 0.0531148 12.1363 0.000936225C5.51343 -0.0819356 0.0122798 5.3477 2.09375e-05 11.9744C-0.0122379 18.6133 5.3602 24 11.9892 24C16.5709 24 20.6899 21.4034 22.7095 17.3764C22.8045 17.1892 22.6666 16.9682 22.4582 16.9682Z" fill="#8DBB11"/>
</svg>
