<svg width="26" height="26" viewBox="0 0 26 26" fill="none" xmlns="http://www.w3.org/2000/svg">
<path d="M13 0C11.0559 0 9.45455 1.60136 9.45455 3.54545C9.45455 3.96145 9.542 4.35382 9.67673 4.72727H3.76764L3.58209 5.68809L0.0366365 23.4154L0 23.5253V26H26V23.5253L25.9634 23.4154L22.4179 5.68809L22.2324 4.72727H16.3233C16.4652 4.34918 16.5404 3.94929 16.5455 3.54545C16.5455 1.60136 14.9441 0 13 0ZM13 2.36364C13.6654 2.36364 14.1818 2.88127 14.1818 3.54545C14.1818 4.21082 13.6642 4.72727 13 4.72727C12.3346 4.72727 11.8182 4.20964 11.8182 3.54545C11.8182 2.88009 12.3358 2.36364 13 2.36364ZM5.68691 7.09091H20.3131L23.6364 23.6364H2.36364L5.68691 7.09091Z" fill="#8DBB11"/>
</svg>
